<svg width="24" height="24" viewBox="0 0 24 24" fill="none" xmlns="http://www.w3.org/2000/svg">
<g clip-path="url(#clip0_735_10)">
<path d="M5.73757 14.0125L9.51023 12.1263C10.6424 11.5601 11.5602 10.6423 12.1262 9.51013L14.0125 5.73747C14.282 5.19853 15.051 5.19853 15.3206 5.73747L17.2069 9.51013C17.7729 10.6423 18.6909 11.5601 19.8229 12.1263L23.5956 14.0125C24.1345 14.282 24.1345 15.0511 23.5956 15.3205L19.8229 17.2069C18.6908 17.7729 17.7729 18.6909 17.2069 19.8229L15.3206 23.5956C15.0512 24.1345 14.2821 24.1345 14.0125 23.5956L12.1262 19.8229C11.5602 18.6908 10.6422 17.7729 9.51023 17.2069L5.73757 15.3205C5.19863 15.0511 5.19863 14.282 5.73757 14.0125ZM6.20983 5.08867L7.82663 4.28027C8.0577 4.1648 8.0577 3.8352 7.82663 3.71973L6.20983 2.91133C5.72463 2.6688 5.3313 2.27533 5.08863 1.79013L4.28023 0.1732C4.16477 -0.0577333 3.83517 -0.0577333 3.7197 0.1732L2.9113 1.79C2.66877 2.2752 2.2753 2.66853 1.7901 2.9112L0.1733 3.71973C-0.0577667 3.8352 -0.0577667 4.1648 0.1733 4.28027L1.7901 5.08867C2.2753 5.3312 2.66863 5.72467 2.9113 6.20987L3.7197 7.82667C3.83517 8.0576 4.16477 8.0576 4.28023 7.82667L5.08863 6.20987C5.33117 5.72467 5.72463 5.33133 6.20983 5.08867Z" fill="white"/>
</g>
<defs>
<clipPath id="clip0_735_10">
<rect width="24" height="23.9999" fill="white"/>
</clipPath>
</defs>
</svg>
