<svg width="24" height="24" viewBox="0 0 24 24" fill="none" xmlns="http://www.w3.org/2000/svg">
<path d="M2 20.75C1.5859 20.75 1.25 20.4141 1.25 20C1.25 19.5859 1.5859 19.25 2 19.25H6C6.4141 19.25 6.75 19.5859 6.75 20C6.75 20.4141 6.4141 20.75 6 20.75H2ZM10 20.75H14C14.4141 20.75 14.75 20.4141 14.75 20C14.75 19.5859 14.4141 19.25 14 19.25H10C9.5859 19.25 9.25 19.5859 9.25 20C9.25 20.4141 9.5859 20.75 10 20.75ZM22 19.25H18C17.5859 19.25 17.25 19.5859 17.25 20C17.25 20.4141 17.5859 20.75 18 20.75H22C22.4141 20.75 22.75 20.4141 22.75 20C22.75 19.5859 22.4141 19.25 22 19.25ZM2 16.75H6C6.4141 16.75 6.75 16.4141 6.75 16C6.75 15.5859 6.4141 15.25 6 15.25H2C1.5859 15.25 1.25 15.5859 1.25 16C1.25 16.4141 1.5859 16.75 2 16.75ZM10 16.75H14C14.4141 16.75 14.75 16.4141 14.75 16C14.75 15.5859 14.4141 15.25 14 15.25H10C9.5859 15.25 9.25 15.5859 9.25 16C9.25 16.4141 9.5859 16.75 10 16.75ZM22 15.25H18C17.5859 15.25 17.25 15.5859 17.25 16C17.25 16.4141 17.5859 16.75 18 16.75H22C22.4141 16.75 22.75 16.4141 22.75 16C22.75 15.5859 22.4141 15.25 22 15.25ZM2 12.75H6C6.4141 12.75 6.75 12.4141 6.75 12C6.75 11.5859 6.4141 11.25 6 11.25H2C1.5859 11.25 1.25 11.5859 1.25 12C1.25 12.4141 1.5859 12.75 2 12.75ZM10 12.75H14C14.4141 12.75 14.75 12.4141 14.75 12C14.75 11.5859 14.4141 11.25 14 11.25H10C9.5859 11.25 9.25 11.5859 9.25 12C9.25 12.4141 9.5859 12.75 10 12.75ZM10 8.75H14C14.4141 8.75 14.75 8.4141 14.75 8C14.75 7.5859 14.4141 7.25 14 7.25H10C9.5859 7.25 9.25 7.5859 9.25 8C9.25 8.4141 9.5859 8.75 10 8.75ZM10 4.75H14C14.4141 4.75 14.75 4.4141 14.75 4C14.75 3.5859 14.4141 3.25 14 3.25H10C9.5859 3.25 9.25 3.5859 9.25 4C9.25 4.4141 9.5859 4.75 10 4.75Z" fill="white"/>
</svg>
