<svg width="20" height="20" viewBox="0 0 20 20" fill="none" xmlns="http://www.w3.org/2000/svg">
<g clip-path="url(#clip0_607_373)">
<path fill-rule="evenodd" clip-rule="evenodd" d="M10.0432 0.975159C4.95886 0.975159 0.848633 5.11569 0.848633 10.2381C0.848633 14.3327 3.4822 17.7987 7.13565 19.0254C7.59243 19.1176 7.75974 18.8261 7.75974 18.5809C7.75974 18.3661 7.74469 17.6301 7.74469 16.8631C5.18697 17.4153 4.65435 15.7589 4.65435 15.7589C4.2433 14.6854 3.63427 14.4095 3.63427 14.4095C2.79713 13.842 3.69525 13.842 3.69525 13.842C4.62386 13.9034 5.11112 14.7929 5.11112 14.7929C5.93302 16.2037 7.25742 15.805 7.79023 15.5596C7.86627 14.9615 8.10999 14.5474 8.36878 14.3175C6.32881 14.1027 4.18251 13.3053 4.18251 9.74725C4.18251 8.73508 4.54763 7.90697 5.12618 7.26293C5.0349 7.03294 4.71514 6.08194 5.21765 4.8091C5.21765 4.8091 5.994 4.56368 7.7445 5.75992C8.49395 5.55716 9.26685 5.45401 10.0432 5.45314C10.8196 5.45314 11.611 5.56061 12.3418 5.75992C14.0925 4.56368 14.8688 4.8091 14.8688 4.8091C15.3714 6.08194 15.0514 7.03294 14.9601 7.26293C15.5539 7.90697 15.904 8.73508 15.904 9.74725C15.904 13.3053 13.7577 14.0873 11.7025 14.3175C12.0375 14.6088 12.3266 15.1608 12.3266 16.035C12.3266 17.2772 12.3115 18.2741 12.3115 18.5807C12.3115 18.8261 12.479 19.1176 12.9356 19.0256C16.589 17.7985 19.2226 14.3327 19.2226 10.2381C19.2377 5.11569 15.1124 0.975159 10.0432 0.975159Z" fill="white"/>
</g>
<defs>
<clipPath id="clip0_607_373">
<rect width="18.374" height="18.374" fill="white" transform="translate(0.848633 0.975159)"/>
</clipPath>
</defs>
</svg>
