<svg width="25" height="25" viewBox="0 0 25 25" fill="none" xmlns="http://www.w3.org/2000/svg">
<path d="M4.19922 19.2588V10.7588C4.19922 9.49976 4.79202 8.31416 5.79922 7.55876L10.9992 3.65876C11.7103 3.12546 12.6881 3.12546 13.3992 3.65876L18.5992 7.55876C19.6065 8.31416 20.1992 9.49976 20.1992 10.7589V19.2589C20.1992 20.3635 19.3038 21.2589 18.1992 21.2589H15.8992C15.3469 21.2589 14.8992 20.8111 14.8992 20.2589V16.7589C14.8992 15.2195 13.6111 13.9811 12.0539 14.0627C10.5939 14.1392 9.49922 15.4497 9.49922 16.9117V20.2589C9.49922 20.8111 9.05152 21.2589 8.49922 21.2589H6.19922C5.09462 21.2589 4.19922 20.3634 4.19922 19.2588Z" fill="white"/>
</svg>
