<svg width="14" height="14" viewBox="0 0 14 14" fill="none" xmlns="http://www.w3.org/2000/svg">
<g clip-path="url(#clip0_609_659)">
<path d="M13.1731 8.23056V9.16102C13.1731 10.0125 12.4806 10.7051 11.6291 10.7051H11.5856C11.4334 11.5044 10.8614 12.155 10.1045 12.4115C9.74919 12.5319 9.38323 12.2464 9.38323 11.8713V8.69652C9.38323 8.3214 9.74925 8.03595 10.1045 8.15633C10.8614 8.41287 11.4334 9.0635 11.5856 9.8628H11.6291C12.0162 9.8628 12.3309 9.5481 12.3309 9.16097V8.2305C12.3309 5.39244 10.2018 3.03141 7.48389 2.85545C6.03637 2.76825 4.64477 3.25572 3.58651 4.24817C2.52719 5.24118 1.94377 6.58725 1.94377 8.03809V9.16102C1.94377 9.54816 2.25847 9.86286 2.6456 9.86286H2.68906C2.84127 9.06355 3.4133 8.41292 4.17021 8.15639C4.52551 8.03601 4.89148 8.32146 4.89148 8.69658V11.8713C4.89148 12.2465 4.52546 12.5319 4.17021 12.4115C3.4133 12.1551 2.84127 11.5044 2.68906 10.7051H2.6456C1.79408 10.7051 1.10156 10.0126 1.10156 9.16108V8.03814C1.10156 6.37619 1.79739 4.77079 3.01022 3.63359C4.24062 2.48106 5.8499 1.90859 7.53869 2.01555C10.6981 2.21953 13.1731 4.9495 13.1731 8.23056Z" fill="white"/>
</g>
<defs>
<clipPath id="clip0_609_659">
<rect width="13.4753" height="13.4753" fill="white" transform="translate(0.399414 0.483398)"/>
</clipPath>
</defs>
</svg>
