<svg width="25" height="25" viewBox="0 0 25 25" fill="none" xmlns="http://www.w3.org/2000/svg">
<path d="M17.2242 15.8698C18.4569 14.3296 19.1992 12.3805 19.1992 10.2588C19.1992 5.29586 15.1616 1.25876 10.1992 1.25876C5.23682 1.25876 1.19922 5.29586 1.19922 10.2588C1.19922 15.2217 5.23682 19.2588 10.1992 19.2588C12.3208 19.2588 14.2699 18.5166 15.8102 17.2838L21.4922 22.9658C21.6875 23.1611 21.9434 23.2588 22.1992 23.2588C22.455 23.2588 22.7109 23.1611 22.9062 22.9658C23.2968 22.5752 23.2968 21.9424 22.9062 21.5517L17.2242 15.8698ZM10.1992 17.2588C6.33932 17.2588 3.19922 14.1182 3.19922 10.2588C3.19922 6.39936 6.33932 3.25876 10.1992 3.25876C14.0591 3.25876 17.1992 6.39936 17.1992 10.2588C17.1992 14.1182 14.0591 17.2588 10.1992 17.2588Z" fill="white"/>
</svg>
