<svg width="25" height="25" viewBox="0 0 25 25" fill="none" xmlns="http://www.w3.org/2000/svg">
<path d="M4.7034 13.1822L3.0656 14.1278C2.5873 14.4039 2.4234 15.0155 2.6996 15.4938L4.65231 18.8759C4.92841 19.3542 5.5401 19.5181 6.0183 19.2419L7.67861 18.2833C7.98901 18.1041 8.36521 18.1258 8.67531 18.3054C8.67871 18.3074 8.6821 18.3094 8.6855 18.3113C8.9947 18.4896 9.1996 18.8045 9.1996 19.1614V21.2636C9.1996 21.8158 9.64731 22.2636 10.1996 22.2636H14.1996C14.7519 22.2636 15.1996 21.8158 15.1996 21.2636V19.1614C15.1996 18.8045 15.4045 18.4896 15.7137 18.3113C15.7171 18.3093 15.7205 18.3073 15.7239 18.3054C16.034 18.1258 16.4102 18.1041 16.7206 18.2833L18.3809 19.2419C18.8592 19.518 19.4708 19.3541 19.7469 18.8759L21.6996 15.4938C21.9757 15.0155 21.8118 14.4039 21.3336 14.1278L19.7133 13.1923C19.3843 13.0024 19.1817 12.6513 19.1819 12.2714V12.256C19.1818 11.8761 19.3844 11.525 19.7133 11.335L21.3336 10.3996C21.8119 10.1234 21.9758 9.51183 21.6996 9.03363L19.7469 5.65153C19.4708 5.17323 18.8591 5.00933 18.3809 5.28553L16.7206 6.24413C16.4102 6.42333 16.034 6.40163 15.7239 6.22203C15.7205 6.22003 15.7171 6.21803 15.7137 6.21613C15.4045 6.03783 15.1996 5.72293 15.1996 5.36603V3.26373C15.1996 2.71143 14.7519 2.26373 14.1996 2.26373H10.1996C9.64731 2.26373 9.1996 2.71143 9.1996 3.26373V5.36593C9.1996 5.72283 8.9947 6.03773 8.6855 6.21603C8.6821 6.21803 8.67871 6.22003 8.67531 6.22193C8.36521 6.40153 7.98901 6.42323 7.67861 6.24403L6.0183 5.28543C5.54 5.00923 4.92841 5.17313 4.65231 5.65143L2.6996 9.03353C2.4235 9.51183 2.5874 10.1233 3.0656 10.3995L4.7034 11.3451C5.0271 11.532 5.201 11.8837 5.2006 12.2574V12.2698C5.201 12.6436 5.0271 12.9954 4.7034 13.1822ZM12.1996 9.26373C13.8565 9.26373 15.1996 10.6068 15.1996 12.2637C15.1996 13.9206 13.8565 15.2637 12.1996 15.2637C10.5427 15.2637 9.1996 13.9206 9.1996 12.2637C9.1996 10.6068 10.5427 9.26373 12.1996 9.26373Z" fill="white"/>
</svg>
