<svg width="14" height="15" viewBox="0 0 14 15" fill="none" xmlns="http://www.w3.org/2000/svg">
<path d="M5.61083 7.40519L4.75324 12.5507C4.6962 12.893 4.96009 13.2045 5.30707 13.2045H11.842C12.189 13.2045 12.4529 12.8929 12.3958 12.5507L11.5383 7.40519C11.448 6.86371 10.9795 6.46687 10.4306 6.46687H6.71844C6.16949 6.46687 5.70106 6.86371 5.61083 7.40519ZM7.31124 8.15127C7.31124 8.84761 7.87821 9.41458 8.57454 9.41458C9.27087 9.41458 9.83785 8.84761 9.83785 8.15127C9.83785 7.91877 10.0264 7.73017 10.2589 7.73017C10.4915 7.73017 10.68 7.91877 10.68 8.15127C10.68 9.31205 9.73532 10.2568 8.57454 10.2568C7.41376 10.2568 6.46903 9.31205 6.46903 8.15127C6.46903 7.91877 6.65763 7.73017 6.89013 7.73017C7.12264 7.73017 7.31124 7.91877 7.31124 8.15127ZM1.27545 5.9054V8.71274C1.27545 9.95308 2.28093 10.9586 3.52132 10.9586H4.16488L4.78025 7.26685C4.93869 6.31499 5.75406 5.62466 6.71849 5.62466H8.53479C8.40958 5.14118 7.97422 4.78246 7.45155 4.78246H7.03045V3.65952C7.03045 2.49874 6.086 1.55402 4.92494 1.55402C3.76388 1.55402 2.81943 2.49874 2.81943 3.65952V4.78246H2.39833C1.77813 4.78246 1.27545 5.2852 1.27545 5.9054ZM3.66169 3.65952C3.66169 2.96319 4.22838 2.39622 4.92499 2.39622C5.62161 2.39622 6.1883 2.96319 6.1883 3.65952V4.78246H3.66169V3.65952Z" fill="white"/>
</svg>
