<svg width="14" height="14" viewBox="0 0 14 14" fill="none" xmlns="http://www.w3.org/2000/svg">
<path d="M10.2198 2.72926H9.65836V2.16779C9.65836 1.85747 9.40722 1.60632 9.09689 1.60632C8.78657 1.60632 8.53542 1.85747 8.53542 2.16779V2.72926H5.16661V2.16779C5.16661 1.85747 4.91518 1.60632 4.60514 1.60632C4.2951 1.60632 4.04367 1.85747 4.04367 2.16779V2.72926H3.4822C2.24383 2.72926 1.23633 3.73648 1.23633 4.97514V10.5898C1.23633 11.8285 2.24383 12.8357 3.4822 12.8357H10.2198C11.4585 12.8357 12.4657 11.8285 12.4657 10.5898V4.97514C12.4657 3.73648 11.4585 2.72926 10.2198 2.72926ZM11.3428 10.5898C11.3428 11.2088 10.8388 11.7128 10.2198 11.7128H3.4822C2.8629 11.7128 2.35927 11.2088 2.35927 10.5898V6.65954H4.60514C4.60514 5.42089 5.61236 4.41367 6.85102 4.41367C8.08967 4.41367 9.09689 5.42089 9.09689 6.65954H11.3428V10.5898ZM5.72808 6.65954C5.72808 6.03934 6.23082 5.5366 6.85102 5.5366C7.47121 5.5366 7.97395 6.03934 7.97395 6.65954C7.97395 7.27974 7.47121 7.78248 6.85102 7.78248C6.23082 7.78248 5.72808 7.27974 5.72808 6.65954ZM8.4804 9.6803C8.53683 9.85357 8.38955 10.0284 8.2073 10.0284H5.49468C5.31242 10.0284 5.16515 9.85357 5.22158 9.6803C5.36806 9.23051 5.79085 8.90542 6.28949 8.90542H7.41243C7.91113 8.90542 8.33391 9.23045 8.4804 9.6803Z" fill="white"/>
</svg>
