<svg width="25" height="26" viewBox="0 0 25 26" fill="none" xmlns="http://www.w3.org/2000/svg">
<g clip-path="url(#clip0_735_12)">
<path d="M0.479492 8.75825V23.1582C0.479492 24.4838 1.55397 25.5582 2.87949 25.5582H22.0795C23.405 25.5582 24.4795 24.4838 24.4795 23.1582V8.75825C24.4795 7.43273 23.405 6.35825 22.0795 6.35825H14.6427L20.3451 2.55664C20.8971 2.1892 21.0459 1.444 20.6779 0.892605C20.31 0.340605 19.5657 0.190605 19.0139 0.559845L12.5205 4.88872L8.39901 1.79848C7.87053 1.40008 7.11693 1.50964 6.71973 2.03812C6.32133 2.5684 6.42909 3.32068 6.95997 3.718L10.4803 6.35825H2.87949C1.55397 6.35825 0.479492 7.43273 0.479492 8.75825ZM21.1795 9.95825C21.1795 9.46133 21.5826 9.05825 22.0795 9.05825C22.5764 9.05825 22.9795 9.46133 22.9795 9.95825V12.3582C22.9795 12.8552 22.5764 13.2582 22.0795 13.2582C21.5826 13.2582 21.1795 12.8552 21.1795 12.3582V9.95825ZM21.1795 15.9582C21.1795 15.4613 21.5826 15.0582 22.0795 15.0582C22.5764 15.0582 22.9795 15.4613 22.9795 15.9582V18.3582C22.9795 18.8552 22.5764 19.2582 22.0795 19.2582C21.5826 19.2582 21.1795 18.8552 21.1795 18.3582V15.9582ZM4.07949 8.75825H18.4795C19.1423 8.75825 19.6795 9.29549 19.6795 9.95825V21.9582C19.6795 22.6209 19.1423 23.1582 18.4795 23.1582H4.07949C3.41673 23.1582 2.87949 22.6209 2.87949 21.9582V9.95825C2.87949 9.29549 3.41673 8.75825 4.07949 8.75825Z" fill="white"/>
</g>
<defs>
<clipPath id="clip0_735_12">
<rect width="24" height="25.201" fill="white" transform="translate(0.479492 0.3573)"/>
</clipPath>
</defs>
</svg>
